<?xml version="1.0" standalone="no"?>
<!DOCTYPE svg PUBLIC "-//W3C//DTD SVG 20010904//EN"
 "http://www.w3.org/TR/2001/REC-SVG-20010904/DTD/svg10.dtd">
<svg version="1.0" xmlns="http://www.w3.org/2000/svg"
 width="900.000000pt" height="900.000000pt" viewBox="0 0 900.000000 900.000000"
 preserveAspectRatio="xMidYMid meet">
<metadata>
Created by potrace 1.10, written by Peter Selinger 2001-2011
</metadata>
<g transform="translate(0.000000,900.000000) scale(0.100000,-0.100000)"
fill="#000000" stroke="none">
<path d="M853 6090 c-214 -63 -324 -219 -364 -515 -17 -122 -17 -398 -1 -520
6 -49 13 -147 14 -217 l3 -127 -40 -41 c-22 -23 -69 -62 -105 -87 -118 -83
-179 -160 -200 -255 -11 -50 -11 -62 4 -100 34 -84 114 -171 256 -278 70 -52
111 -93 121 -119 6 -14 14 -90 19 -170 32 -539 111 -768 310 -900 93 -61 160
-86 313 -117 111 -22 113 -20 123 103 6 91 6 92 -17 102 -13 5 -67 13 -119 18
-237 23 -364 170 -411 478 -15 97 -19 401 -6 500 l7 60 -47 25 c-104 53 -230
166 -281 251 -29 47 -30 132 -3 173 10 15 59 55 107 87 105 70 162 122 171
157 6 24 1 108 -17 312 -12 140 -12 465 0 565 28 226 46 293 96 367 51 75 88
95 199 110 18 3 20 12 23 81 l3 77 -48 -1 c-26 0 -76 -9 -110 -19z"/>
<path d="M7670 5791 c-11 -22 -13 -93 -4 -129 4 -13 17 -24 33 -28 50 -11 126
-38 142 -51 8 -7 21 -13 28 -13 23 0 156 -145 188 -205 94 -180 143 -475 143
-853 0 -115 4 -172 14 -195 15 -37 59 -75 154 -132 35 -20 81 -54 103 -75 37
-35 39 -40 39 -97 0 -56 -3 -65 -44 -119 -67 -91 -164 -170 -268 -218 -20 -10
-39 -24 -42 -32 -3 -8 -1 -58 4 -112 28 -292 -14 -579 -106 -719 -70 -104
-176 -168 -304 -185 -41 -5 -95 -12 -120 -16 l-45 -7 -3 -81 c-3 -92 8 -134
37 -134 71 0 277 55 346 93 17 9 39 20 50 26 33 15 126 100 160 144 32 42 95
167 95 188 0 6 7 32 15 58 32 101 73 417 76 576 2 91 9 105 74 149 117 78 211
149 248 190 52 56 95 132 103 182 14 94 -30 155 -215 299 -57 44 -115 100
-132 124 l-29 44 0 176 c0 299 -49 592 -126 744 -8 16 -14 33 -14 38 0 15 -68
118 -114 172 -47 56 -142 130 -196 152 -76 32 -205 65 -254 65 -15 0 -30 -8
-36 -19z"/>
<path d="M4025 5215 c-5 -2 -22 -6 -36 -9 -15 -3 -39 -24 -58 -52 l-34 -46 -8
-307 c-4 -168 -11 -326 -14 -351 -3 -25 -10 -209 -15 -410 -6 -201 -13 -373
-16 -383 -3 -10 -12 -17 -20 -15 -10 2 -454 585 -569 748 -14 19 -60 83 -103
143 -121 168 -176 246 -192 271 -29 45 -155 221 -167 234 -7 7 -13 17 -13 22
0 4 -30 40 -68 79 -59 62 -72 71 -103 71 -28 0 -46 -10 -88 -47 l-52 -48 1
-395 c1 -383 -9 -733 -31 -1085 -6 -93 -15 -233 -19 -310 -5 -77 -12 -165 -16
-196 -6 -49 -4 -58 15 -76 39 -36 107 -38 177 -7 62 27 58 -2 66 598 3 303 11
594 17 646 6 52 11 124 11 160 1 70 22 186 37 201 6 6 29 -20 62 -71 62 -96
156 -228 276 -385 25 -33 56 -76 69 -96 14 -20 31 -43 39 -51 9 -8 28 -33 44
-55 15 -22 63 -87 106 -144 242 -323 344 -466 492 -699 26 -41 55 -81 63 -87
10 -9 51 -13 117 -13 l102 0 16 63 c37 148 40 245 44 1127 4 858 4 866 -17
912 -11 26 -24 49 -28 52 -11 7 -76 15 -87 11z"/>
<path d="M5695 4884 c-97 -9 -418 -78 -510 -110 -23 -8 -48 -14 -57 -14 -10 0
-32 -6 -50 -14 -18 -8 -71 -29 -118 -46 -168 -62 -321 -149 -411 -231 -94 -87
-146 -219 -116 -292 22 -52 117 -122 187 -137 19 -4 58 -13 85 -20 126 -31
165 -40 240 -55 101 -22 195 -43 265 -60 30 -7 91 -21 135 -30 80 -17 141 -31
265 -59 80 -18 195 -44 232 -51 64 -12 54 -77 -23 -156 -74 -77 -121 -108
-269 -180 -58 -28 -114 -55 -124 -61 -11 -6 -31 -14 -45 -18 -14 -5 -51 -18
-81 -30 -225 -88 -497 -117 -641 -68 -50 17 -76 33 -116 75 -29 30 -53 59 -53
66 0 37 -22 87 -38 87 -25 0 -115 -88 -131 -128 -12 -28 -11 -38 3 -70 26 -58
89 -103 227 -162 229 -97 422 -96 784 6 225 64 448 162 584 258 193 137 271
281 228 424 -14 48 -22 52 -187 97 -36 9 -85 23 -110 30 -25 8 -72 21 -105 31
-33 9 -78 23 -100 30 -22 6 -69 20 -105 29 -36 10 -87 24 -115 31 -27 8 -72
21 -100 28 -27 8 -75 21 -105 29 -30 9 -80 22 -110 30 -30 8 -84 23 -120 32
-36 10 -85 24 -109 31 -25 8 -53 14 -62 14 -10 0 -34 8 -54 17 -29 14 -35 22
-35 49 0 97 137 192 355 247 94 24 180 40 515 93 98 16 193 38 245 56 17 5 40
12 52 15 39 9 93 68 93 101 0 16 -6 34 -12 40 -39 31 -185 55 -283 46z"/>
</g>
</svg>
