<svg xmlns="http://www.w3.org/2000/svg" width="430" height="430" fill="none" viewBox="0 0 430 430"><g stroke-linecap="round" stroke-linejoin="round" stroke-miterlimit="10" stroke-width="18"><path stroke="#9cf4a7" d="m277.733 180.212 31.866 14.385-31.866 14.484-15.484 31.866-15.383-31.866L215 194.597l31.866-14.385 15.383-31.866zm46.694 124.345 22.824 10.402-22.824 10.402-11.109 22.925-11.108-22.925-22.925-10.402 22.925-10.402 11.108-22.924zm41.029-226.803 22.563 10.238-22.563 10.237-10.934 22.564-10.933-22.564-22.464-10.237 22.464-10.238 10.933-22.564z"/><path stroke="#110a5c" d="M255.4 365.843c-16.389 6.296-34.079 9.694-52.667 9.694-81.35 0-147.409-65.96-147.409-147.409 0-81.45 65.959-147.409 147.409-147.409 18.588 0 36.278 3.398 52.667 9.694-55.365 21.187-94.741 74.854-94.741 137.715s39.376 116.428 94.741 137.715"/></g></svg>